<mxfile host="65bd71144e">
    <diagram id="YMtCwXzjbdtY_rYYp_gf" name="Page-1">
        <mxGraphModel dx="579" dy="391" grid="1" gridSize="10" guides="1" tooltips="1" connect="1" arrows="1" fold="1" page="1" pageScale="1" pageWidth="850" pageHeight="1100" math="0" shadow="0">
            <root>
                <mxCell id="0"/>
                <mxCell id="1" parent="0"/>
                <mxCell id="3" value="Satori Node&lt;br&gt;" style="swimlane;horizontal=0;whiteSpace=wrap;html=1;" vertex="1" parent="1">
                    <mxGeometry x="40" y="150" width="620" height="410" as="geometry"/>
                </mxCell>
                <mxCell id="4" value="Engine" style="swimlane;horizontal=0;whiteSpace=wrap;html=1;" vertex="1" parent="3">
                    <mxGeometry x="40" y="300" width="312.5" height="85" as="geometry"/>
                </mxCell>
                <mxCell id="5" value="pilot model" style="rounded=1;whiteSpace=wrap;html=1;" vertex="1" parent="4">
                    <mxGeometry x="32.5" y="47.5" width="77.5" height="25" as="geometry"/>
                </mxCell>
                <mxCell id="6" value="stable model" style="rounded=1;whiteSpace=wrap;html=1;" vertex="1" parent="4">
                    <mxGeometry x="32.5" y="17.5" width="77.5" height="25" as="geometry"/>
                </mxCell>
                <mxCell id="7" value="pilot model" style="rounded=1;whiteSpace=wrap;html=1;" vertex="1" parent="4">
                    <mxGeometry x="122.5" y="47.5" width="77.5" height="25" as="geometry"/>
                </mxCell>
                <mxCell id="8" value="stable model" style="rounded=1;whiteSpace=wrap;html=1;" vertex="1" parent="4">
                    <mxGeometry x="122.5" y="17.5" width="77.5" height="25" as="geometry"/>
                </mxCell>
                <mxCell id="9" value="pilot model" style="rounded=1;whiteSpace=wrap;html=1;" vertex="1" parent="4">
                    <mxGeometry x="212.5" y="47.5" width="77.5" height="25" as="geometry"/>
                </mxCell>
                <mxCell id="10" value="stable model" style="rounded=1;whiteSpace=wrap;html=1;" vertex="1" parent="4">
                    <mxGeometry x="212.5" y="17.5" width="77.5" height="25" as="geometry"/>
                </mxCell>
                <mxCell id="11" value="Relay Engine" style="rounded=1;whiteSpace=wrap;html=1;" vertex="1" parent="3">
                    <mxGeometry x="260" y="30" width="120" height="60" as="geometry"/>
                </mxCell>
                <mxCell id="12" value="Pubsub Connection" style="rounded=1;whiteSpace=wrap;html=1;" vertex="1" parent="3">
                    <mxGeometry x="60" y="30" width="120" height="60" as="geometry"/>
                </mxCell>
                <mxCell id="16" value="2" style="endArrow=classic;html=1;exitX=0;exitY=0.25;exitDx=0;exitDy=0;entryX=1;entryY=0.25;entryDx=0;entryDy=0;fillColor=#ffff88;strokeColor=#99FFFF;" edge="1" parent="3" source="11" target="12">
                    <mxGeometry width="50" height="50" relative="1" as="geometry">
                        <mxPoint x="350" y="-50" as="sourcePoint"/>
                        <mxPoint x="330" y="40" as="targetPoint"/>
                        <Array as="points"/>
                    </mxGeometry>
                </mxCell>
                <mxCell id="20" value="apis.Disk" style="rounded=1;whiteSpace=wrap;html=1;" vertex="1" parent="3">
                    <mxGeometry x="530" y="180" width="70" height="60" as="geometry"/>
                </mxCell>
                <mxCell id="19" value="4" style="edgeStyle=none;html=1;fillColor=#e1d5e7;strokeColor=#9673a6;entryX=0;entryY=0.5;entryDx=0;entryDy=0;exitX=0.5;exitY=1;exitDx=0;exitDy=0;" edge="1" parent="3" source="12" target="33">
                    <mxGeometry relative="1" as="geometry">
                        <mxPoint x="130" y="-50" as="sourcePoint"/>
                        <mxPoint x="130" y="40" as="targetPoint"/>
                    </mxGeometry>
                </mxCell>
                <mxCell id="21" value="10" style="edgeStyle=none;html=1;fillColor=#e1d5e7;strokeColor=#9673a6;exitX=0.25;exitY=1;exitDx=0;exitDy=0;entryX=0.75;entryY=0;entryDx=0;entryDy=0;" edge="1" parent="3" source="41" target="6">
                    <mxGeometry relative="1" as="geometry">
                        <mxPoint x="140" y="-40" as="sourcePoint"/>
                        <mxPoint x="100" y="150" as="targetPoint"/>
                    </mxGeometry>
                </mxCell>
                <mxCell id="22" value="10" style="edgeStyle=none;html=1;fillColor=#e1d5e7;strokeColor=#9673a6;exitX=0.25;exitY=1;exitDx=0;exitDy=0;entryX=0.75;entryY=0;entryDx=0;entryDy=0;" edge="1" parent="3" source="41" target="5">
                    <mxGeometry relative="1" as="geometry">
                        <mxPoint x="130" y="100" as="sourcePoint"/>
                        <mxPoint x="141.25" y="237.5" as="targetPoint"/>
                    </mxGeometry>
                </mxCell>
                <mxCell id="23" value="10" style="edgeStyle=none;html=1;fillColor=#e1d5e7;strokeColor=#9673a6;entryX=0.25;entryY=0;entryDx=0;entryDy=0;exitX=0.25;exitY=1;exitDx=0;exitDy=0;" edge="1" parent="3" source="41" target="8">
                    <mxGeometry relative="1" as="geometry">
                        <mxPoint x="140" y="110" as="sourcePoint"/>
                        <mxPoint x="151.25" y="247.5" as="targetPoint"/>
                    </mxGeometry>
                </mxCell>
                <mxCell id="24" value="10" style="edgeStyle=none;html=1;fillColor=#e1d5e7;strokeColor=#9673a6;exitX=0.25;exitY=1;exitDx=0;exitDy=0;entryX=0.25;entryY=0;entryDx=0;entryDy=0;" edge="1" parent="3" source="41" target="7">
                    <mxGeometry relative="1" as="geometry">
                        <mxPoint x="150" y="120" as="sourcePoint"/>
                        <mxPoint x="161.25" y="257.5" as="targetPoint"/>
                    </mxGeometry>
                </mxCell>
                <mxCell id="33" value="disk logic" style="rounded=1;whiteSpace=wrap;html=1;" vertex="1" parent="3">
                    <mxGeometry x="420" y="180" width="70" height="60" as="geometry"/>
                </mxCell>
                <mxCell id="35" value="5" style="edgeStyle=none;html=1;fillColor=#e1d5e7;strokeColor=#9673a6;entryX=0;entryY=0.5;entryDx=0;entryDy=0;exitX=1;exitY=0.5;exitDx=0;exitDy=0;" edge="1" parent="3" source="33" target="20">
                    <mxGeometry relative="1" as="geometry">
                        <mxPoint x="150" y="140" as="sourcePoint"/>
                        <mxPoint x="440" y="185" as="targetPoint"/>
                    </mxGeometry>
                </mxCell>
                <mxCell id="38" value="6" style="edgeStyle=orthogonalEdgeStyle;html=1;exitX=0.5;exitY=1;exitDx=0;exitDy=0;strokeColor=#9673a6;curved=1;entryX=0.5;entryY=1;entryDx=0;entryDy=0;fillColor=#e1d5e7;dashed=1;" edge="1" parent="3" source="33" target="20">
                    <mxGeometry relative="1" as="geometry">
                        <mxPoint x="492.5" y="200" as="sourcePoint"/>
                        <mxPoint x="610" y="300" as="targetPoint"/>
                        <Array as="points">
                            <mxPoint x="455" y="270"/>
                            <mxPoint x="565" y="270"/>
                        </Array>
                    </mxGeometry>
                </mxCell>
                <mxCell id="41" value="model &lt;br&gt;router" style="rounded=1;whiteSpace=wrap;html=1;" vertex="1" parent="3">
                    <mxGeometry x="252.5" y="180" width="70" height="60" as="geometry"/>
                </mxCell>
                <mxCell id="43" value="10" style="edgeStyle=none;html=1;fillColor=#e1d5e7;strokeColor=#9673a6;entryX=0.25;entryY=0;entryDx=0;entryDy=0;exitX=0.5;exitY=1;exitDx=0;exitDy=0;" edge="1" parent="3" source="12" target="41">
                    <mxGeometry relative="1" as="geometry">
                        <mxPoint x="130" y="100" as="sourcePoint"/>
                        <mxPoint x="450" y="145" as="targetPoint"/>
                    </mxGeometry>
                </mxCell>
                <mxCell id="45" value="11&lt;span style=&quot;color: rgba(0, 0, 0, 0); font-family: monospace; font-size: 0px; text-align: start; background-color: rgb(42, 37, 47);&quot;&gt;%3CmxGraphModel%3E%3Croot%3E%3CmxCell%20id%3D%220%22%2F%3E%3CmxCell%20id%3D%221%22%20parent%3D%220%22%2F%3E%3CmxCell%20id%3D%222%22%20value%3D%229%22%20style%3D%22edgeStyle%3Dnone%3Bhtml%3D1%3BexitX%3D0.75%3BexitY%3D1%3BexitDx%3D0%3BexitDy%3D0%3BentryX%3D0.75%3BentryY%3D0%3BentryDx%3D0%3BentryDy%3D0%3BstrokeColor%3D%2382b366%3BfillColor%3D%23d5e8d4%3B%22%20edge%3D%221%22%20parent%3D%221%22%3E%3CmxGeometry%20relative%3D%221%22%20as%3D%22geometry%22%3E%3CmxPoint%20x%3D%22375%22%20y%3D%22370%22%20as%3D%22sourcePoint%22%2F%3E%3CmxPoint%20x%3D%22350.625%22%20y%3D%22467.5000000000001%22%20as%3D%22targetPoint%22%2F%3E%3C%2FmxGeometry%3E%3C%2FmxCell%3E%3C%2Froot%3E%3C%2FmxGraphModel%3E&lt;/span&gt;" style="edgeStyle=none;html=1;exitX=0.5;exitY=0;exitDx=0;exitDy=0;entryX=0.5;entryY=1;entryDx=0;entryDy=0;strokeColor=#d6b656;fillColor=#fff2cc;" edge="1" parent="3" source="6" target="12">
                    <mxGeometry relative="1" as="geometry"/>
                </mxCell>
                <mxCell id="46" value="11" style="edgeStyle=none;html=1;exitX=0.5;exitY=0;exitDx=0;exitDy=0;entryX=0.5;entryY=1;entryDx=0;entryDy=0;strokeColor=#d6b656;fillColor=#fff2cc;" edge="1" parent="3" source="8" target="12">
                    <mxGeometry relative="1" as="geometry">
                        <mxPoint x="141.25" y="237.5" as="sourcePoint"/>
                        <mxPoint x="130" y="100" as="targetPoint"/>
                    </mxGeometry>
                </mxCell>
                <mxCell id="47" value="11" style="edgeStyle=none;html=1;exitX=0.5;exitY=0;exitDx=0;exitDy=0;entryX=0.5;entryY=1;entryDx=0;entryDy=0;strokeColor=#d6b656;fillColor=#fff2cc;" edge="1" parent="3" source="10" target="12">
                    <mxGeometry relative="1" as="geometry">
                        <mxPoint x="151.25" y="247.5" as="sourcePoint"/>
                        <mxPoint x="140" y="110" as="targetPoint"/>
                    </mxGeometry>
                </mxCell>
                <mxCell id="52" value="7" style="edgeStyle=none;html=1;entryX=0.75;entryY=0;entryDx=0;entryDy=0;strokeColor=#82b366;fillColor=#d5e8d4;exitX=0.703;exitY=0.96;exitDx=0;exitDy=0;exitPerimeter=0;" edge="1" parent="3" source="49" target="20">
                    <mxGeometry relative="1" as="geometry"/>
                </mxCell>
                <mxCell id="64" value="9" style="edgeStyle=none;html=1;exitX=0.25;exitY=1;exitDx=0;exitDy=0;entryX=1;entryY=0.25;entryDx=0;entryDy=0;strokeColor=#82b366;fillColor=#d5e8d4;fontStyle=0" edge="1" parent="3" source="49" target="41">
                    <mxGeometry relative="1" as="geometry"/>
                </mxCell>
                <mxCell id="49" value="ipfs download process" style="rounded=1;whiteSpace=wrap;html=1;" vertex="1" parent="3">
                    <mxGeometry x="440" y="30" width="120" height="60" as="geometry"/>
                </mxCell>
                <mxCell id="65" value="9" style="edgeStyle=none;html=1;exitX=0.75;exitY=1;exitDx=0;exitDy=0;entryX=0.75;entryY=0;entryDx=0;entryDy=0;strokeColor=#82b366;fillColor=#d5e8d4;fontStyle=0" edge="1" parent="3" source="41" target="10">
                    <mxGeometry relative="1" as="geometry">
                        <mxPoint x="480" y="100" as="sourcePoint"/>
                        <mxPoint x="362.5" y="185" as="targetPoint"/>
                    </mxGeometry>
                </mxCell>
                <mxCell id="66" value="9" style="edgeStyle=none;html=1;exitX=0.75;exitY=1;exitDx=0;exitDy=0;entryX=0.5;entryY=0;entryDx=0;entryDy=0;strokeColor=#82b366;fillColor=#d5e8d4;fontStyle=0" edge="1" parent="3" source="41" target="9">
                    <mxGeometry relative="1" as="geometry">
                        <mxPoint x="345" y="230" as="sourcePoint"/>
                        <mxPoint x="320.625" y="327.5000000000001" as="targetPoint"/>
                    </mxGeometry>
                </mxCell>
                <mxCell id="68" value="8" style="edgeStyle=none;html=1;entryX=0.25;entryY=0;entryDx=0;entryDy=0;strokeColor=#82b366;fillColor=#d5e8d4;exitX=0.5;exitY=1;exitDx=0;exitDy=0;" edge="1" parent="3" source="49" target="20">
                    <mxGeometry relative="1" as="geometry">
                        <mxPoint x="534.6428571428573" y="100" as="sourcePoint"/>
                        <mxPoint x="567.5" y="140" as="targetPoint"/>
                    </mxGeometry>
                </mxCell>
                <mxCell id="13" value="1" style="endArrow=classic;html=1;exitX=0.5;exitY=1;exitDx=0;exitDy=0;entryX=0.5;entryY=0;entryDx=0;entryDy=0;fillColor=#ffff88;strokeColor=#99FFFF;" edge="1" parent="1" source="14" target="11">
                    <mxGeometry width="50" height="50" relative="1" as="geometry">
                        <mxPoint x="430" y="70" as="sourcePoint"/>
                        <mxPoint x="450" y="210" as="targetPoint"/>
                        <Array as="points"/>
                    </mxGeometry>
                </mxCell>
                <mxCell id="14" value="www.api.com" style="rounded=0;whiteSpace=wrap;html=1;" vertex="1" parent="1">
                    <mxGeometry x="300" y="30" width="120" height="60" as="geometry"/>
                </mxCell>
                <mxCell id="18" value="1" style="edgeStyle=none;html=1;fillColor=#e1d5e7;strokeColor=#9673a6;exitX=0.25;exitY=1;exitDx=0;exitDy=0;entryX=0.25;entryY=0;entryDx=0;entryDy=0;" edge="1" parent="1" source="15" target="12">
                    <mxGeometry relative="1" as="geometry"/>
                </mxCell>
                <mxCell id="15" value="Satori Pubsub Server" style="rounded=0;whiteSpace=wrap;html=1;" vertex="1" parent="1">
                    <mxGeometry x="100" y="30" width="120" height="60" as="geometry"/>
                </mxCell>
                <mxCell id="17" value="3" style="edgeStyle=none;html=1;entryX=0.75;entryY=1;entryDx=0;entryDy=0;strokeColor=#99FFFF;exitX=0.75;exitY=0;exitDx=0;exitDy=0;" edge="1" parent="1" source="12" target="15">
                    <mxGeometry relative="1" as="geometry"/>
                </mxCell>
                <mxCell id="25" value="disk (incrementals)" style="rounded=0;whiteSpace=wrap;html=1;" vertex="1" parent="1">
                    <mxGeometry x="710" y="330" width="80" height="60" as="geometry"/>
                </mxCell>
                <mxCell id="32" value="5" style="edgeStyle=none;html=1;fillColor=#e1d5e7;strokeColor=#9673a6;entryX=0;entryY=0.5;entryDx=0;entryDy=0;exitX=1;exitY=0.5;exitDx=0;exitDy=0;" edge="1" parent="1" source="20" target="25">
                    <mxGeometry relative="1" as="geometry">
                        <mxPoint x="190" y="290" as="sourcePoint"/>
                        <mxPoint x="460" y="335" as="targetPoint"/>
                    </mxGeometry>
                </mxCell>
                <mxCell id="36" value="disk (compressed)" style="rounded=0;whiteSpace=wrap;html=1;" vertex="1" parent="1">
                    <mxGeometry x="710" y="400" width="80" height="60" as="geometry"/>
                </mxCell>
                <mxCell id="48" value="&lt;h1&gt;Data Flow Description&lt;/h1&gt;&lt;p&gt;1. Data comes into the satori node from some outside source, whether it be an API or a pubsub system.&lt;/p&gt;&lt;p&gt;2. the relay engine passes data to the pubsub connection to...&lt;/p&gt;&lt;p&gt;3. send to the pubsub servers.&lt;/p&gt;&lt;p&gt;4. when data comes in, it should be saved to the disk.&lt;/p&gt;&lt;p&gt;5. we will save incrementals.&lt;/p&gt;&lt;p&gt;6. we might merge incrementals into compressed data if two criteria are met: first, if we're not downloading ipfs data for this dataset, and second, if we have a multiple of 100 incrementals.&lt;/p&gt;&lt;p&gt;7. ipfs data gets downloaded, sets flag for check on step 6, and saves to disk. the data comes directly from ipfs to disk, but we also model the control flow with 7.&lt;/p&gt;&lt;p&gt;8. after ipfs data finishes download we merge into compressed area on disk.&lt;/p&gt;&lt;p&gt;9. after ipfs has been downloaded and merged, tell the models that use this dataset to re-grab their datasets.&lt;/p&gt;&lt;p&gt;&lt;span style=&quot;background-color: initial;&quot;&gt;10. when a new incremental comes in from outside, tell the models that need the data what it is.&lt;/span&gt;&lt;br&gt;&lt;/p&gt;&lt;p&gt;11. when a stable model gets an incremental update it immediately produces a prediction, and passes to the pubsub connection to broadcast.&lt;/p&gt;&lt;p&gt;(6 &amp;amp; 8. the compression/merging process can take a little while so it's ran in it's own spinoff thread so it's concurrent, and non-blocking.)&lt;br&gt;&lt;/p&gt;&lt;p&gt;(12. this diagram shows dataflow while the system is running, on startup there is checkin where data comes from the Satori Network and is the data needed to start all the engines, models, and processes of the node.)&lt;/p&gt;&lt;p&gt;(5.5 don't forget that on every incremental we should repin to ipfs and notify server of pin)&lt;/p&gt;&lt;p&gt;(disk logic and model router are both in data manager.)&lt;/p&gt;&lt;p&gt;&lt;b&gt;Bold means it's not done.&lt;/b&gt;&lt;/p&gt;" style="text;html=1;strokeColor=none;fillColor=none;spacing=5;spacingTop=-20;whiteSpace=wrap;overflow=hidden;rounded=0;" vertex="1" parent="1">
                    <mxGeometry x="880" y="10" width="800" height="630" as="geometry"/>
                </mxCell>
                <mxCell id="50" value="ipfs" style="rounded=0;whiteSpace=wrap;html=1;" vertex="1" parent="1">
                    <mxGeometry x="480" y="30" width="120" height="60" as="geometry"/>
                </mxCell>
                <mxCell id="51" value="7" style="endArrow=classic;html=1;exitX=0.5;exitY=1;exitDx=0;exitDy=0;entryX=0.5;entryY=0;entryDx=0;entryDy=0;fillColor=#d5e8d4;strokeColor=#82b366;" edge="1" parent="1" source="50" target="49">
                    <mxGeometry width="50" height="50" relative="1" as="geometry">
                        <mxPoint x="340" y="100" as="sourcePoint"/>
                        <mxPoint x="340" y="190" as="targetPoint"/>
                        <Array as="points"/>
                    </mxGeometry>
                </mxCell>
                <mxCell id="54" value="disk &lt;br&gt;(ipfs)" style="rounded=0;whiteSpace=wrap;html=1;" vertex="1" parent="1">
                    <mxGeometry x="710" y="260" width="80" height="60" as="geometry"/>
                </mxCell>
                <mxCell id="57" value="7" style="edgeStyle=none;html=1;entryX=0;entryY=0.5;entryDx=0;entryDy=0;strokeColor=#82b366;fillColor=#d5e8d4;exitX=1;exitY=0.25;exitDx=0;exitDy=0;" edge="1" parent="1" source="20" target="54">
                    <mxGeometry relative="1" as="geometry">
                        <mxPoint x="545" y="260" as="sourcePoint"/>
                        <mxPoint x="525" y="300" as="targetPoint"/>
                    </mxGeometry>
                </mxCell>
                <mxCell id="58" value="8" style="edgeStyle=orthogonalEdgeStyle;html=1;exitX=1;exitY=0.75;exitDx=0;exitDy=0;strokeColor=#82b366;curved=1;entryX=1;entryY=0.75;entryDx=0;entryDy=0;fillColor=#d5e8d4;" edge="1" parent="1" source="54" target="36">
                    <mxGeometry relative="1" as="geometry">
                        <mxPoint x="487.5" y="380" as="sourcePoint"/>
                        <mxPoint x="632.5" y="380" as="targetPoint"/>
                        <Array as="points">
                            <mxPoint x="840" y="305"/>
                            <mxPoint x="840" y="445"/>
                        </Array>
                    </mxGeometry>
                </mxCell>
                <mxCell id="62" value="6" style="edgeStyle=orthogonalEdgeStyle;html=1;exitX=1;exitY=0.5;exitDx=0;exitDy=0;strokeColor=#9673a6;curved=1;entryX=1;entryY=0.25;entryDx=0;entryDy=0;fillColor=#e1d5e7;" edge="1" parent="1" source="25" target="36">
                    <mxGeometry relative="1" as="geometry">
                        <mxPoint x="810" y="305" as="sourcePoint"/>
                        <mxPoint x="810" y="390" as="targetPoint"/>
                        <Array as="points">
                            <mxPoint x="820" y="360"/>
                            <mxPoint x="820" y="415"/>
                        </Array>
                    </mxGeometry>
                </mxCell>
                <mxCell id="67" value="11&lt;span style=&quot;color: rgba(0, 0, 0, 0); font-family: monospace; font-size: 0px; text-align: start; background-color: rgb(42, 37, 47);&quot;&gt;%3CmxGraphModel%3E%3Croot%3E%3CmxCell%20id%3D%220%22%2F%3E%3CmxCell%20id%3D%221%22%20parent%3D%220%22%2F%3E%3CmxCell%20id%3D%222%22%20value%3D%229%22%20style%3D%22edgeStyle%3Dnone%3Bhtml%3D1%3BexitX%3D0.75%3BexitY%3D1%3BexitDx%3D0%3BexitDy%3D0%3BentryX%3D0.75%3BentryY%3D0%3BentryDx%3D0%3BentryDy%3D0%3BstrokeColor%3D%2382b366%3BfillColor%3D%23d5e8d4%3B%22%20edge%3D%221%22%20parent%3D%221%22%3E%3CmxGeometry%20relative%3D%221%22%20as%3D%22geometry%22%3E%3CmxPoint%20x%3D%22375%22%20y%3D%22370%22%20as%3D%22sourcePoint%22%2F%3E%3CmxPoint%20x%3D%22350.625%22%20y%3D%22467.5000000000001%22%20as%3D%22targetPoint%22%2F%3E%3C%2FmxGeometry%3E%3C%2FmxCell%3E%3C%2Froot%3E%3C%2FmxGraphModel%3E&lt;/span&gt;" style="edgeStyle=none;html=1;strokeColor=#d6b656;fillColor=#fff2cc;entryX=0.5;entryY=1;entryDx=0;entryDy=0;exitX=0.5;exitY=0;exitDx=0;exitDy=0;" edge="1" parent="1" source="12" target="15">
                    <mxGeometry relative="1" as="geometry">
                        <mxPoint x="140" y="310" as="sourcePoint"/>
                        <mxPoint x="160" y="130" as="targetPoint"/>
                    </mxGeometry>
                </mxCell>
                <mxCell id="69" value="7" style="endArrow=classic;html=1;exitX=0.5;exitY=1;exitDx=0;exitDy=0;entryX=0;entryY=0.5;entryDx=0;entryDy=0;fillColor=#d5e8d4;strokeColor=#82b366;" edge="1" parent="1" source="50" target="54">
                    <mxGeometry width="50" height="50" relative="1" as="geometry">
                        <mxPoint x="550" y="100.00000000000006" as="sourcePoint"/>
                        <mxPoint x="550" y="190" as="targetPoint"/>
                        <Array as="points"/>
                    </mxGeometry>
                </mxCell>
            </root>
        </mxGraphModel>
    </diagram>
</mxfile>